Coordinates
version=1
nRows=11
nColumns=42
inDegrees=yes

Units are S.I. units (second, meters, Newtons, ...)
If the header above contains a line with 'inDegrees', this indicates whether rotational values are in degrees (yes) or radians (no).

endheader
time	pelvis_tilt	pelvis_list	pelvis_rotation	pelvis_tx	pelvis_ty	pelvis_tz	hip_flexion_r	hip_adduction_r	hip_rotation_r	knee_angle_r	knee_adduction_r	knee_angle_r_beta	ankle_angle_r	subtalar_angle_r	mtp_angle_r	hip_flexion_l	hip_adduction_l	hip_rotation_l	knee_angle_l	knee_adduction_l	knee_angle_l_beta	ankle_angle_l	subtalar_angle_l	mtp_angle_l	lumbar_extension	lumbar_bending	lumbar_rotation	arm_flex_r	arm_add_r	arm_rot_r	elbow_flex_r	pro_sup_r	wrist_flex_r	wrist_dev_r	arm_flex_l	arm_add_l	arm_rot_l	elbow_flex_l	pro_sup_l	wrist_flex_l	wrist_dev_l
      1.48000000	      4.44720412	      0.87155823	      6.86218559	     -1.23649896	      0.85001876	      0.13937014	     28.28883317	     -1.91209983	      2.72074321	     46.05077237	      0.91378839	      0.80373760	     14.47148313	    -18.91075458	     -7.61334265	     12.76160803	      8.63204458	    -11.39347084	     38.16133524	    -11.86604002	      0.66604095	     28.24340628	     -9.25874017	     -7.61334265	    -32.99201393	      3.26444561	     -6.22693883	      9.36540845	     -6.25838113	     -2.52973766	     30.70735078	     90.00000001	      0.00000000	      0.00000000	     18.65746140	    -14.61600382	     -0.04838448	     43.31746682	     90.00000001	      0.00000000	      0.00000000
      1.49000000	      4.46483670	      0.92041995	      7.06555102	     -1.22701391	      0.84953345	      0.13961392	     28.38447692	     -2.10259784	      1.66520995	     42.41478923	      0.22488084	      0.74027772	     13.85570654	    -18.84493135	     -7.61103160	     11.94849967	      8.54132622	    -11.55953789	     38.05202615	    -12.02179884	      0.66413314	     28.95507743	     -8.76267880	     -7.61103160	    -33.01106494	      3.26435451	     -6.48533978	      8.69020386	     -6.21106927	     -2.78572700	     30.44153615	     90.00000001	      0.00000000	      0.00000000	     19.30321132	    -14.93180300	      0.37172898	     44.00715165	     90.00000001	      0.00000000	      0.00000000
      1.50000000	      4.54554304	      0.93562873	      7.26450151	     -1.21746394	      0.84905651	      0.13999765	     28.31535273	     -2.23014061	      0.35113518	     38.72198905	     -0.51357422	      0.67582620	     13.10596673	    -18.75221720	     -7.60842261	     11.07595706	      8.34663902	    -11.76675190	     37.99728204	    -12.13067206	      0.66317768	     29.83090406	     -8.05801174	     -7.60842261	    -33.11427699	      3.29523753	     -6.66915226	      8.07789734	     -6.10829104	     -3.15209672	     30.11496630	     90.00000001	      0.00000000	      0.00000000	     19.89692001	    -15.34951994	      1.06870496	     44.89892039	     90.00000001	      0.00000000	      0.00000000
      1.51000000	      4.48637887	      0.93689410	      7.49092904	     -1.20791146	      0.84817090	      0.14035900	     28.35611756	     -2.36187038	     -1.00990396	     35.15600333	     -1.13006988	      0.61358801	     12.51135972	    -18.63046431	     -7.60606524	     10.40963310	      8.19979856	    -11.96757466	     37.99478386	    -12.36693589	      0.66313408	     30.60868182	     -7.38678679	     -7.60606524	    -33.03707158	      3.32219129	     -6.92703116	      7.46083554	     -6.05684342	     -3.52367840	     29.82425883	     90.00000001	      0.00000000	      0.00000000	     20.40905162	    -15.71466829	      1.77071842	     45.77150889	     90.00000001	      0.00000000	      0.00000000
      1.52000000	      4.50720404	      0.92496602	      7.70717431	     -1.19828467	      0.84721768	      0.14092728	     28.27905979	     -2.47185202	     -2.40463013	     31.80359380	     -1.57493609	      0.55507743	     11.85625903	    -18.49658510	     -7.59777343	      9.77491395	      7.84597162	    -12.94780093	     38.07752330	    -12.83336361	      0.66457815	     31.89833570	     -5.03248057	     -7.59777343	    -33.09048203	      3.36137881	     -7.07003305	      7.05376725	     -5.65660177	     -5.34024647	     29.19645157	     90.00000001	      0.00000000	      0.00000000	     20.53745029	    -16.83998406	      4.61989832	     47.90648441	     90.00000001	      0.00000000	      0.00000000
      1.53000000	      4.42094178	      0.89107069	      7.93796407	     -1.18865481	      0.84607153	      0.14156159	     28.26394901	     -2.54799796	     -3.72760844	     28.65685160	     -1.86236161	      0.50015641	     11.37577134	    -18.23074469	     -7.59564859	      9.16092445	      7.62623631	    -12.92504415	     38.19058096	    -12.91653276	      0.66655138	     32.58331128	     -4.85029612	     -7.59564859	    -33.00447646	      3.41194966	     -7.24591466	      6.44200048	     -5.58997390	     -5.62177634	     29.03896997	     90.00000001	      0.00000000	      0.00000000	     21.11420654	    -17.03361108	      4.77677889	     48.39808753	     90.00000001	      0.00000000	      0.00000000
      1.54000000	      4.34568938	      0.86492097	      8.24086797	     -1.17896970	      0.84486566	      0.14208387	     28.17984878	     -2.67007113	     -4.88411364	     25.86893195	     -1.95898255	      0.45149804	     10.87803732	    -18.01240976	     -7.59326733	      8.53039875	      7.44631961	    -12.87780576	     38.26940170	    -13.09735610	      0.66792706	     33.40523077	     -4.42769166	     -7.59326733	    -32.91934525	      3.49419454	     -7.48095316	      5.87632702	     -5.51752117	     -6.03491860	     28.80911217	     90.00000001	      0.00000000	      0.00000000	     21.58897322	    -17.25758923	      5.21541140	     49.18340818	     90.00000001	      0.00000000	      0.00000000
      1.55000000	      4.00550757	      1.02879685	      8.44328721	     -1.16934984	      0.84303312	      0.14277081	     28.68765918	     -3.14104617	     -5.92236547	     24.16377947	     -1.67459022	      0.42173751	     10.82924590	    -18.00185654	     -7.59297016	      8.17820165	      7.54456017	    -12.95361385	     38.29472775	    -13.30159161	      0.66836909	     33.70502485	     -4.39011407	     -7.59297016	    -32.55022569	      3.25800086	     -7.67385090	      5.22821401	     -5.45849519	     -6.13234427	     28.56321773	     90.00000001	      0.00000000	      0.00000000	     22.14237406	    -17.45113430	      5.25339832	     49.53795723	     90.00000001	      0.00000000	      0.00000000
      1.56000000	      4.19334543	      0.78847150	      8.82960757	     -1.15929641	      0.84215091	      0.14357510	     28.06095361	     -2.79827916	     -6.69272892	     21.84988652	     -1.80294186	      0.38135246	     10.22320059	    -17.47812035	     -7.58794269	      7.30780041	      6.96127912	    -13.08321632	     38.46885487	    -13.60768399	      0.67140818	     35.06504382	     -2.92746910	     -7.58794269	    -32.72198153	      3.62688189	     -7.90778176	      4.93068526	     -5.21040981	     -7.50520439	     28.27657672	     90.00000001	      0.00000000	      0.00000000	     22.01089424	    -18.15739534	      6.93917992	     51.59508659	     90.00000001	      0.00000000	      0.00000000
      1.57000000	      3.97521934	      0.81196521	      9.10295863	     -1.14941395	      0.84045942	      0.14443696	     28.32963476	     -2.96702186	     -7.28886307	     20.98474624	     -1.53574199	      0.36625291	     10.12191378	    -17.38212400	     -7.58761231	      6.84759245	      6.84536301	    -13.03639302	     38.59269229	    -13.83120291	      0.67356955	     35.35654106	     -2.91571951	     -7.58761231	    -32.44801753	      3.58568477	     -8.09884084	      4.38265192	     -5.13257024	     -7.59786414	     28.06285373	     90.00000001	      0.00000000	      0.00000000	     22.44886758	    -18.21222004	      6.95594070	     51.84670010	     90.00000001	      0.00000000	      0.00000000
      1.58000000	      4.01705952	      0.64236901	      9.45435980	     -1.13929688	      0.83926704	      0.14535258	     28.08019270	     -2.70947433	     -7.79558198	     20.12168518	     -1.58556686	      0.35118966	      9.61031176	    -16.89386338	     -7.58654568	      6.10964682	      6.40874514	    -12.74715066	     38.81260366	    -13.90943552	      0.67740773	     36.32488695	     -2.70567148	     -7.58654568	    -32.44014321	      3.84699978	     -8.23110090	      4.02195680	     -5.10353014	     -7.90845483	     27.88327488	     90.00000001	      0.00000000	      0.00000000	     22.66801354	    -18.24347105	      7.21134082	     52.46174270	     90.00000001	      0.00000000	      0.00000000
